<?xml version="1.0" encoding="UTF-8"?>
<!DOCTYPE svg PUBLIC "-//W3C//DTD SVG 1.1//EN" "http://www.w3.org/Graphics/SVG/1.1/DTD/svg11.dtd">
<!-- Creator: CorelDRAW -->
<svg xmlns="http://www.w3.org/2000/svg" xml:space="preserve" width="55.0332mm" height="37.9306mm" style="shape-rendering:geometricPrecision; text-rendering:geometricPrecision; image-rendering:optimizeQuality; fill-rule:evenodd; clip-rule:evenodd"
viewBox="0 0 55.0332 37.9306"
 xmlns:xlink="http://www.w3.org/1999/xlink">
 <defs>
  <style type="text/css">
   <![CDATA[
    .str0 {stroke:#373435;stroke-width:0.0847;stroke-linecap:round;stroke-linejoin:round}
    .fil1 {fill:black}
    .fil0 {fill:black;fill-rule:nonzero}
   ]]>
  </style>
 </defs>
 <g id="Camada_x0020_1">
  <metadata id="CorelCorpID_0Corel-Layer"/>
  <path class="fil0" d="M11.8113 13.6524c0.3347,-0.0747 0.6195,-0.2017 0.8554,-0.3856 0.234,-0.1834 0.4169,-0.4036 0.5508,-0.6611 0.1324,-0.255 0.2172,-0.5302 0.2512,-0.8208l0.2669 1.2676 1.2055 -0.2538 -0.8794 -4.1756c-0.0871,-0.4036 -0.2257,-0.7334 -0.4181,-0.9892 -0.1903,-0.2563 -0.4213,-0.4499 -0.6929,-0.5787 -0.2691,-0.1272 -0.5679,-0.2006 -0.8918,-0.2189 -0.3241,-0.0183 -0.6621,0.0097 -1.0159,0.0863 -0.4137,0.0893 -0.7686,0.2225 -1.0686,0.4002 -0.298,0.1774 -0.5378,0.3837 -0.7198,0.6188 -0.1819,0.2353 -0.3064,0.4864 -0.3702,0.7486 -0.0653,0.2646 -0.0701,0.5296 -0.0147,0.7926l1.2813 -0.14c-0.044,-0.2092 -0.0352,-0.4036 0.0306,-0.5841 0.0638,-0.1799 0.1843,-0.3373 0.3639,-0.4702 0.1797,-0.133 0.4207,-0.2314 0.7226,-0.2971 0.1155,-0.0265 0.242,-0.0423 0.376,-0.0532 0.1365,-0.0094 0.2694,-0.0049 0.4033,0.0146 0.1334,0.0172 0.2546,0.0588 0.3669,0.1195 0.1127,0.0627 0.2049,0.1515 0.2771,0.2683 0.1077,0.1828 0.145,0.3393 0.1115,0.4675 -0.0311,0.1298 -0.1113,0.242 -0.237,0.3333 -0.1278,0.0918 -0.2793,0.1734 -0.4571,0.2433 -0.1778,0.0699 -0.3581,0.1382 -0.543,0.2052 -0.3822,0.1367 -0.7248,0.2868 -1.0295,0.4526 -0.3072,0.1642 -0.5623,0.3499 -0.7648,0.5591 -0.2046,0.2097 -0.3467,0.4494 -0.4256,0.7212 -0.0774,0.2694 -0.0813,0.5796 -0.0097,0.9301 0.0657,0.3019 0.1817,0.5544 0.3478,0.7574 0.1643,0.2054 0.3623,0.3649 0.5934,0.4763 0.2316,0.1135 0.4776,0.1828 0.7427,0.2092 0.2631,0.0268 0.5282,0.012 0.7912,-0.0434zm-1.2153 -1.7038c-0.0601,-0.275 -0.0054,-0.5288 0.1604,-0.7584 0.1653,-0.2317 0.4552,-0.4268 0.867,-0.5871 0.3789,-0.1425 0.6879,-0.2876 0.9255,-0.4328 0.2377,-0.1453 0.3992,-0.3025 0.4801,-0.4732l0.0733 0.348c0.0751,0.367 0.0922,0.6944 0.0511,0.982 -0.0432,0.2882 -0.1291,0.5378 -0.2602,0.7471 -0.1316,0.2073 -0.2926,0.3774 -0.4864,0.5048 -0.1934,0.1294 -0.4042,0.217 -0.6341,0.2654 -0.1889,0.0377 -0.3658,0.0403 -0.5313,0.0038 -0.1656,-0.0366 -0.3059,-0.1066 -0.4206,-0.2099 -0.1144,-0.1014 -0.1892,-0.2306 -0.2248,-0.3897zm9.3828 -0.0032c0.4528,-0.0996 0.8362,-0.2712 1.15,-0.5169 0.3139,-0.2456 0.5603,-0.5441 0.7369,-0.8971 0.1746,-0.3526 0.2835,-0.7389 0.3224,-1.1603 0.0414,-0.4196 0.015,-0.8532 -0.0792,-1.3006 -0.0755,-0.3583 -0.1868,-0.6918 -0.337,-1.0041 -0.1475,-0.3107 -0.3276,-0.5908 -0.5419,-0.8376 -0.2138,-0.2449 -0.4558,-0.4491 -0.7273,-0.6083 -0.2714,-0.1592 -0.5684,-0.2653 -0.8891,-0.3189 -0.3206,-0.0536 -0.6642,-0.0418 -1.0271,0.0324 -0.331,0.0719 -0.6158,0.1881 -0.8536,0.3528 -0.2363,0.1623 -0.4256,0.3622 -0.5661,0.5994 -0.1425,0.2377 -0.234,0.5014 -0.2763,0.7937l-0.2381 -1.1309 -1.2055 0.2539 1.832 8.6992 1.2055 -0.2539 -0.7538 -3.5791c0.1557,0.2462 0.3445,0.4444 0.5694,0.5982 0.2229,0.1543 0.476,0.2567 0.7571,0.3078 0.2828,0.0487 0.5898,0.0381 0.9217,-0.0297zm-2.659 -2.8274c-0.0822,-0.4002 -0.1053,-0.7566 -0.069,-1.067 0.0342,-0.3101 0.1166,-0.5762 0.2431,-0.7975 0.1264,-0.2213 0.2856,-0.3998 0.4757,-0.5349 0.1924,-0.1336 0.4029,-0.2233 0.6307,-0.2713 0.2402,-0.0506 0.4773,-0.0551 0.7069,-0.0126 0.23,0.0446 0.4472,0.1416 0.6472,0.2898 0.2024,0.1499 0.378,0.3574 0.5315,0.6236 0.1533,0.2662 0.2705,0.5962 0.3554,0.9893 0.0808,0.394 0.1022,0.7421 0.0658,1.0418 -0.0381,0.3022 -0.1205,0.5575 -0.2508,0.771 -0.1286,0.2109 -0.2896,0.381 -0.4814,0.508 -0.1913,0.129 -0.4025,0.2145 -0.6325,0.263 -0.2278,0.0479 -0.4561,0.0528 -0.6852,0.0123 -0.2271,-0.0408 -0.4431,-0.1317 -0.6458,-0.2728 -0.2033,-0.1432 -0.3833,-0.3411 -0.5362,-0.5944 -0.1554,-0.255 -0.2736,-0.5698 -0.3554,-0.9483zm9.842 1.3147c0.3087,-0.065 0.6003,-0.1696 0.8745,-0.316 0.2766,-0.1448 0.5229,-0.3308 0.742,-0.5543 0.2185,-0.2256 0.3989,-0.4885 0.5361,-0.7921 0.1398,-0.302 0.226,-0.6425 0.2612,-1.0198 0.0347,-0.3793 0.0056,-0.7951 -0.0874,-1.247 -0.0967,-0.449 -0.2378,-0.8411 -0.4225,-1.1742 -0.1848,-0.3332 -0.401,-0.61 -0.6515,-0.8341 -0.2486,-0.2246 -0.5205,-0.3965 -0.8119,-0.5169 -0.2914,-0.1203 -0.5923,-0.1932 -0.9047,-0.2183 -0.31,-0.0234 -0.6194,-0.0036 -0.9281,0.0614 -0.3107,0.0654 -0.6039,0.1725 -0.8822,0.3198 -0.2758,0.149 -0.5258,0.3379 -0.7461,0.566 -0.2201,0.2281 -0.3997,0.4951 -0.5406,0.8017 -0.1389,0.3061 -0.2271,0.647 -0.2619,1.0264 -0.0368,0.3798 -0.0077,0.7955 0.0849,1.2454 0.0971,0.451 0.2382,0.8432 0.425,1.1758 0.1844,0.3311 0.4026,0.6075 0.6523,0.8275 0.2521,0.2216 0.5233,0.3894 0.8163,0.5072 0.2926,0.1158 0.5972,0.1858 0.9088,0.2067 0.3141,0.0225 0.6251,0.0003 0.9358,-0.0652zm-2.4706 -2.919c-0.0934,-0.4433 -0.1112,-0.8461 -0.0534,-1.2087 0.0573,-0.3647 0.1987,-0.6691 0.4216,-0.9151 0.2229,-0.246 0.5338,-0.4131 0.9352,-0.4998 0.3981,-0.0817 0.75,-0.0541 1.0532,0.081 0.3032,0.1352 0.5553,0.3568 0.7569,0.667 0.2012,0.308 0.3474,0.6838 0.4407,1.1271 0.0938,0.4454 0.1116,0.8482 0.0513,1.2092 -0.0606,0.3589 -0.2029,0.6592 -0.4271,0.8989 -0.2242,0.2398 -0.5356,0.4049 -0.9328,0.4907 -0.4023,0.0825 -0.7538,0.057 -1.0556,-0.0719 -0.3019,-0.129 -0.5532,-0.3464 -0.7513,-0.6508 -0.1988,-0.3064 -0.3449,-0.6822 -0.4387,-1.1276zm7.1015 1.7362l1.2676 -0.267 -1.3086 -6.2137 -1.2676 0.267 1.3086 6.2137zm-1.605 -7.1896l1.4416 -0.3036 -0.2774 -1.3173 -1.4416 0.3036 0.2774 1.3173zm7.6244 6.1296c0.3087,-0.065 0.6003,-0.1697 0.8745,-0.3161 0.2766,-0.1448 0.5229,-0.3308 0.742,-0.5543 0.2185,-0.2256 0.3989,-0.4885 0.5361,-0.7921 0.1398,-0.302 0.226,-0.6425 0.2612,-1.0198 0.0347,-0.3793 0.0056,-0.795 -0.0874,-1.2469 -0.0967,-0.4491 -0.2378,-0.8412 -0.4225,-1.1743 -0.1848,-0.3332 -0.401,-0.61 -0.6515,-0.834 -0.2486,-0.2246 -0.5205,-0.3966 -0.8119,-0.5169 -0.2914,-0.1203 -0.5923,-0.1933 -0.9047,-0.2184 -0.31,-0.0234 -0.6194,-0.0036 -0.9281,0.0614 -0.3107,0.0654 -0.6039,0.1725 -0.8822,0.3199 -0.2758,0.1489 -0.5258,0.3379 -0.7461,0.5659 -0.2201,0.2281 -0.3997,0.4952 -0.5406,0.8018 -0.1389,0.3061 -0.2271,0.647 -0.2619,1.0264 -0.0368,0.3797 -0.0077,0.7954 0.0849,1.2453 0.0971,0.4511 0.2382,0.8432 0.425,1.1759 0.1844,0.3311 0.4026,0.6074 0.6523,0.8274 0.2521,0.2216 0.5233,0.3894 0.8163,0.5073 0.2926,0.1157 0.5972,0.1857 0.9088,0.2066 0.3141,0.0226 0.6251,0.0003 0.9358,-0.0651zm-2.4706 -2.919c-0.0934,-0.4433 -0.1112,-0.8462 -0.0534,-1.2088 0.0573,-0.3646 0.1987,-0.6691 0.4216,-0.9151 0.2229,-0.2459 0.5338,-0.4131 0.9352,-0.4998 0.3981,-0.0816 0.75,-0.0541 1.0532,0.0811 0.3032,0.1352 0.5553,0.3568 0.7569,0.6669 0.2012,0.308 0.3474,0.6839 0.4407,1.1272 0.0938,0.4453 0.1116,0.8482 0.0513,1.2091 -0.0606,0.3589 -0.2029,0.6592 -0.4271,0.899 -0.2242,0.2397 -0.5356,0.4048 -0.9328,0.4906 -0.4023,0.0826 -0.7538,0.0571 -1.0556,-0.0719 -0.3019,-0.129 -0.5532,-0.3463 -0.7513,-0.6507 -0.1988,-0.3065 -0.3449,-0.6823 -0.4387,-1.1276zm-21.0615 17.4539l1.2924 -0.2721 -0.2957 -1.4043 -0.7705 0.1622c-0.2373,0.0543 -0.4197,0.0712 -0.5511,0.0533 -0.1335,-0.0172 -0.2326,-0.0872 -0.3035,-0.2086 -0.0686,-0.1196 -0.1277,-0.3084 -0.1789,-0.5615l-0.5286 -2.5103 1.6155 -0.3402 -0.2957 -1.4043 -1.6156 0.3402 -0.4213 -2.0008 -1.751 0.4985 0.3952 1.8765 -1.0563 0.2225 0.2957 1.4043 1.0563 -0.2225 0.5575 2.6471c0.1133,0.5276 0.2851,0.9327 0.5196,1.2144 0.2325,0.2819 0.5211,0.4613 0.8615,0.5366 0.3424,0.0751 0.7338,0.064 1.1745,-0.031zm4.3614 -0.7367c0.3595,-0.08 0.6562,-0.2118 0.8922,-0.3956 0.2356,-0.1859 0.4185,-0.4061 0.5488,-0.6606 0.1328,-0.2529 0.223,-0.5229 0.2686,-0.8094l0.267 1.2676 1.7771 -0.3742 -0.7747 -3.6785c-0.1288,-0.6218 -0.34,-1.1116 -0.6302,-1.4724 -0.288,-0.3611 -0.6685,-0.5968 -1.1346,-0.7041 -0.4681,-0.1069 -1.0334,-0.0895 -1.6941,0.0496 -0.4531,0.0976 -0.8313,0.2227 -1.1344,0.3751 -0.3057,0.1509 -0.5473,0.3186 -0.7298,0.4998 -0.1845,0.1817 -0.3208,0.3661 -0.4111,0.5538 -0.0898,0.1898 -0.1495,0.369 -0.1744,0.5386 -0.0268,0.17 -0.0361,0.3213 -0.0265,0.449 0.008,0.1303 0.0198,0.2273 0.0353,0.2911l1.853 -0.2604c-0.0207,-0.1297 -0.006,-0.2649 0.0404,-0.4044 0.0463,-0.1396 0.1364,-0.2667 0.2701,-0.3814 0.1354,-0.1171 0.3271,-0.2029 0.5731,-0.2569 0.3148,-0.0663 0.5643,-0.0735 0.7467,-0.0188 0.184,0.0521 0.3117,0.1657 0.3849,0.3386 0.0626,0.1425 0.0811,0.2619 0.0576,0.3555 -0.0214,0.0932 -0.0804,0.1727 -0.1753,0.236 -0.0923,0.0648 -0.2133,0.1271 -0.3634,0.1847 -0.148,0.0571 -0.318,0.1231 -0.5078,0.1978 -0.3577,0.1402 -0.6936,0.2909 -1.01,0.4527 -0.3184,0.1623 -0.5929,0.3478 -0.8242,0.5544 -0.2328,0.209 -0.4006,0.4499 -0.5019,0.7286 -0.1018,0.2766 -0.114,0.5994 -0.04,0.971 0.0609,0.2791 0.1681,0.5205 0.3203,0.7199 0.1524,0.1993 0.337,0.3574 0.5582,0.473 0.2195,0.1182 0.4599,0.1908 0.7217,0.2222 0.2639,0.031 0.5357,0.017 0.8174,-0.0423zm-0.6254 -1.9838c-0.0393,-0.1864 0.0093,-0.3567 0.1409,-0.512 0.1317,-0.1554 0.344,-0.2975 0.6341,-0.43 0.3293,-0.1515 0.5882,-0.2883 0.7759,-0.4142 0.1879,-0.124 0.3186,-0.2532 0.3916,-0.3897l0.0863 0.4101c0.0451,0.2241 0.0489,0.4374 0.0065,0.6367 -0.0403,0.1989 -0.117,0.3794 -0.2262,0.5387 -0.1092,0.1592 -0.2431,0.2935 -0.4002,0.4001 -0.1592,0.1071 -0.3316,0.1823 -0.52,0.222 -0.1471,0.031 -0.2798,0.0373 -0.4029,0.0178 -0.1231,-0.0195 -0.2266,-0.0691 -0.3121,-0.1463 -0.0833,-0.0776 -0.1414,-0.1886 -0.1739,-0.3332zm5.8704 0.6975l1.8393 -0.3873 -1.8582 -8.8235 -1.8393 0.3874 1.8582 8.8234zm6.3923 -1.1385c0.3769,-0.0794 0.7268,-0.205 1.0531,-0.371 0.3259,-0.1681 0.6078,-0.3703 0.8457,-0.6065 0.238,-0.2361 0.4147,-0.4961 0.5297,-0.782 0.1129,-0.2855 0.1468,-0.5869 0.1,-0.9015l-1.8033 0.25c-0.001,0.0673 -0.0142,0.1479 -0.0419,0.2425 -0.0257,0.0941 -0.0745,0.1908 -0.1465,0.2904 -0.07,0.099 -0.1737,0.1923 -0.3073,0.2766 -0.1337,0.0845 -0.3082,0.1494 -0.5253,0.1972 -0.4353,0.0896 -0.788,0.0275 -1.0621,-0.1852 -0.272,-0.213 -0.4595,-0.5694 -0.5646,-1.0686l4.2626 -0.8976 -0.0707 -0.3356c-0.1015,-0.4718 -0.2434,-0.8789 -0.4279,-1.2207 -0.1845,-0.3418 -0.3995,-0.6232 -0.6459,-0.8482 -0.2459,-0.2229 -0.5113,-0.3942 -0.7972,-0.5091 -0.2864,-0.1171 -0.5819,-0.1847 -0.8851,-0.2073 -0.3029,-0.0206 -0.6053,0.002 -0.9056,0.0652 -0.3003,0.0633 -0.5924,0.1659 -0.8736,0.3095 -0.2829,0.146 -0.5405,0.3301 -0.772,0.5562 -0.2338,0.2244 -0.4263,0.4921 -0.58,0.7992 -0.1534,0.3091 -0.2511,0.6564 -0.2945,1.0462 -0.0434,0.3898 -0.0175,0.8214 0.0799,1.294 0.102,0.4739 0.2518,0.8772 0.4479,1.2123 0.196,0.3351 0.4246,0.6091 0.6875,0.8199 0.2632,0.2128 0.5455,0.3718 0.8487,0.4766 0.3008,0.1032 0.6095,0.1616 0.9259,0.175 0.314,0.0117 0.6222,-0.0142 0.9225,-0.0775zm-2.1528 -3.7517c-0.0445,-0.2112 -0.0375,-0.4139 0.0224,-0.6125 0.0599,-0.1986 0.1747,-0.3721 0.3442,-0.5225 0.1695,-0.1502 0.4001,-0.2573 0.6896,-0.3204 0.2904,-0.059 0.5425,-0.0536 0.7582,0.0155 0.2137,0.0697 0.3867,0.1825 0.5195,0.3406 0.1307,0.1584 0.2189,0.3411 0.2634,0.5524l-2.5973 0.5469zm9.4814 -2.0616l0.8192 3.8898 1.8392 -0.3873 -0.861 -4.0887c-0.0871,-0.4035 -0.2101,-0.741 -0.371,-1.012 -0.1614,-0.2732 -0.3507,-0.4842 -0.569,-0.6372 -0.2199,-0.1507 -0.4583,-0.2454 -0.7157,-0.2863 -0.2594,-0.0405 -0.5279,-0.0316 -0.8097,0.0277 -0.5007,0.1076 -0.8944,0.3031 -1.1804,0.5882 -0.2865,0.2831 -0.4759,0.6475 -0.5685,1.091l-0.2224 -1.0563 -1.8393 0.3873 1.3086 6.2137 1.8392 -0.3873 -0.6359 -3.0199c-0.0948,-0.4602 -0.122,-0.846 -0.0783,-1.1624 0.0437,-0.3164 0.1429,-0.5644 0.3022,-0.7428 0.1588,-0.1806 0.3615,-0.2968 0.6125,-0.3475 0.0949,-0.0221 0.1969,-0.0307 0.3057,-0.0276 0.1067,0.0035 0.2145,0.0327 0.3218,0.0901 0.1048,0.0558 0.2034,0.154 0.2906,0.2914 0.0874,0.1373 0.1583,0.3301 0.2122,0.5761zm6.6849 2.6545l1.2925 -0.2722 -0.2958 -1.4043 -0.7705 0.1623c-0.2373,0.0543 -0.4197,0.0711 -0.5511,0.0533 -0.1334,-0.0172 -0.2326,-0.0872 -0.3035,-0.2086 -0.0685,-0.1197 -0.1277,-0.3084 -0.1789,-0.5615l-0.5286 -2.5103 1.6155 -0.3403 -0.2957 -1.4043 -1.6156 0.3403 -0.4213 -2.0009 -1.751 0.4986 0.3952 1.8765 -1.0563 0.2225 0.2957 1.4043 1.0564 -0.2225 0.5574 2.647c0.1133,0.5277 0.2851,0.9328 0.5196,1.2144 0.2325,0.282 0.5212,0.4613 0.8615,0.5367 0.3424,0.0751 0.7338,0.064 1.1745,-0.031zm5.5721 -0.9657c0.3252,-0.0685 0.6354,-0.1771 0.9307,-0.3258 0.2953,-0.1488 0.5608,-0.3366 0.798,-0.5661 0.2377,-0.2274 0.4341,-0.4959 0.5884,-0.801 0.1517,-0.3066 0.2504,-0.6497 0.2951,-1.0334 0.0425,-0.3831 0.0171,-0.8017 -0.0772,-1.2599 -0.0981,-0.4553 -0.2432,-0.8465 -0.4367,-1.1799 -0.1952,-0.331 -0.4238,-0.6052 -0.6863,-0.8246 -0.2646,-0.219 -0.5527,-0.3854 -0.8619,-0.4977 -0.3096,-0.1143 -0.6287,-0.1812 -0.9589,-0.1982 -0.3306,-0.0191 -0.6583,0.0067 -0.9835,0.0752 -0.3252,0.0684 -0.6355,0.177 -0.9303,0.3278 -0.2974,0.1492 -0.5624,0.3391 -0.8017,0.569 -0.2397,0.2279 -0.4362,0.4964 -0.59,0.8034 -0.1558,0.3076 -0.2546,0.6507 -0.2996,1.0322 -0.0447,0.3837 -0.0197,0.8002 0.0742,1.2563 0.0984,0.4573 0.244,0.8506 0.4396,1.1836 0.1956,0.3331 0.4243,0.6072 0.6909,0.8258 0.2641,0.2169 0.5523,0.3834 0.8635,0.4952 0.3117,0.1139 0.6304,0.1787 0.9626,0.1953 0.3302,0.017 0.6579,-0.0088 0.9831,-0.0772zm-2.1005 -3.01c-0.0851,-0.4147 -0.1029,-0.7766 -0.0504,-1.0817 0.0546,-0.3057 0.1713,-0.5531 0.3504,-0.7401 0.1786,-0.189 0.4119,-0.3138 0.7039,-0.3753 0.2921,-0.0615 0.5559,-0.0414 0.7977,0.059 0.2392,0.099 0.4437,0.2787 0.6169,0.5364 0.1711,0.2581 0.3029,0.596 0.3901,1.0102 0.0873,0.4142 0.1025,0.7744 0.0504,1.0818 -0.0545,0.3057 -0.1691,0.5526 -0.3481,0.7395 -0.1808,0.1895 -0.414,0.3143 -0.7061,0.3759 -0.292,0.0614 -0.5559,0.0413 -0.7956,-0.0597 -0.2393,-0.0988 -0.4458,-0.2781 -0.619,-0.5358 -0.1716,-0.2602 -0.3009,-0.5964 -0.3902,-1.0102z"/>
  <path class="fil0" d="M37.7843 22.9558l0.5994 -0.1262 -0.1222 -0.58 -0.5993 0.1263 0.1221 0.5799zm2.457 -0.4366c0.1459,-0.03 0.2762,-0.0742 0.3933,-0.1334 0.1165,-0.0581 0.2149,-0.1343 0.2961,-0.228 0.0805,-0.0927 0.1398,-0.2069 0.1779,-0.3412 0.0383,-0.1342 0.0522,-0.2919 0.0409,-0.4729l-0.4982 0.0544c0.0015,0.131 -0.0142,0.2445 -0.0462,0.3403 -0.0327,0.0961 -0.0852,0.1745 -0.159,0.2354 -0.073,0.0609 -0.1707,0.1042 -0.2923,0.1298 -0.1186,0.0241 -0.2256,0.0239 -0.3217,-0.0013 -0.0963,-0.026 -0.1807,-0.0713 -0.2544,-0.1374 -0.0728,-0.0662 -0.1338,-0.1484 -0.1839,-0.2464 -0.0493,-0.0981 -0.0867,-0.2081 -0.1123,-0.3296 -0.0252,-0.1193 -0.0352,-0.2349 -0.03,-0.3462 0.0059,-0.1115 0.0281,-0.2137 0.0674,-0.3069 0.0403,-0.0926 0.0983,-0.1722 0.1756,-0.2364 0.0772,-0.065 0.1746,-0.1099 0.2929,-0.1357 0.1266,-0.0258 0.2356,-0.0235 0.3281,0.0083 0.0923,0.031 0.1721,0.0866 0.2403,0.1665 0.0673,0.08 0.1262,0.1794 0.1774,0.299l0.4779 -0.1511c-0.0862,-0.23 -0.1946,-0.4048 -0.3245,-0.5263 -0.1301,-0.1224 -0.2781,-0.1981 -0.4437,-0.2296 -0.1663,-0.0306 -0.3477,-0.0252 -0.5431,0.0176 -0.1216,0.0256 -0.2364,0.0674 -0.3445,0.1255 -0.108,0.0582 -0.2045,0.1314 -0.29,0.2209 -0.0854,0.0896 -0.1551,0.1942 -0.2099,0.3134 -0.0539,0.1191 -0.0873,0.2522 -0.1007,0.4006 -0.0135,0.1475 -0.0022,0.3092 0.0339,0.4842 0.0376,0.1746 0.0922,0.3263 0.1639,0.455 0.0717,0.1288 0.1556,0.2356 0.2527,0.3211 0.0978,0.0854 0.2034,0.1507 0.3171,0.1958 0.114,0.0457 0.2315,0.0723 0.3534,0.0802 0.1222,0.0089 0.2439,0 0.3656,-0.0256zm2.8031 -0.5904c0.12,-0.0252 0.2334,-0.0659 0.3401,-0.1229 0.1075,-0.0562 0.2033,-0.1286 0.2886,-0.2155 0.0849,-0.0877 0.155,-0.19 0.2084,-0.308 0.0544,-0.1175 0.0878,-0.2499 0.1016,-0.3966 0.0135,-0.1475 0.0021,-0.3092 -0.0341,-0.485 -0.0376,-0.1746 -0.0924,-0.327 -0.1642,-0.4566 -0.0719,-0.1296 -0.1559,-0.2372 -0.2534,-0.3244 -0.0966,-0.0873 -0.2024,-0.1542 -0.3157,-0.201 -0.1133,-0.0468 -0.2304,-0.0752 -0.3518,-0.0848 -0.1206,-0.0092 -0.241,-0.0015 -0.361,0.0237 -0.1208,0.0255 -0.2349,0.0672 -0.3431,0.1245 -0.1073,0.0579 -0.2045,0.1314 -0.2901,0.22 -0.0856,0.0888 -0.1554,0.1926 -0.2102,0.3118 -0.054,0.1191 -0.0884,0.2516 -0.1018,0.3992 -0.0144,0.1477 -0.0031,0.3094 0.033,0.4843 0.0377,0.1755 0.0925,0.3279 0.1653,0.4573 0.0716,0.1287 0.1565,0.2363 0.2536,0.3218 0.0981,0.0861 0.2035,0.1514 0.3175,0.1973 0.1137,0.0449 0.2321,0.0722 0.3533,0.0803 0.1221,0.0088 0.2431,0.0001 0.364,-0.0254zm-0.9608 -1.1351c-0.0363,-0.1723 -0.0433,-0.3291 -0.0208,-0.47 0.0223,-0.1419 0.0773,-0.2603 0.164,-0.356 0.0867,-0.0956 0.2076,-0.1606 0.3637,-0.1943 0.1548,-0.0318 0.2916,-0.021 0.4096,0.0315 0.1178,0.0525 0.2159,0.1388 0.2943,0.2594 0.0782,0.1198 0.1351,0.266 0.1714,0.4383 0.0365,0.1732 0.0433,0.3298 0.02,0.4703 -0.0237,0.1395 -0.079,0.2564 -0.1662,0.3495 -0.0872,0.0933 -0.2083,0.1575 -0.3627,0.1909 -0.1565,0.0321 -0.2931,0.0221 -0.4105,-0.028 -0.1174,-0.0501 -0.2152,-0.1347 -0.2922,-0.2531 -0.0773,-0.1192 -0.1342,-0.2653 -0.1706,-0.4385zm5.5008 -1.537l0.3297 1.5659 0.493 -0.1038 -0.3348 -1.5901c-0.0399,-0.1892 -0.103,-0.345 -0.1885,-0.4675 -0.0855,-0.1225 -0.1918,-0.2078 -0.3196,-0.2557 -0.128,-0.0479 -0.2749,-0.0548 -0.441,-0.0207 -0.1368,0.0297 -0.2562,0.0775 -0.3573,0.145 -0.1012,0.0668 -0.1835,0.1472 -0.2468,0.2421 -0.0625,0.0948 -0.1053,0.1988 -0.1269,0.3119 -0.0837,-0.1573 -0.1953,-0.2684 -0.3334,-0.3327 -0.1382,-0.0651 -0.3008,-0.0779 -0.487,-0.0396 -0.1399,0.0304 -0.2575,0.0794 -0.3526,0.1474 -0.0958,0.0682 -0.17,0.1511 -0.2234,0.249 -0.0526,0.0977 -0.086,0.2065 -0.0995,0.3263l-0.1008 -0.4785 -0.493 0.1038 0.5089 2.4165 0.493 -0.1038 -0.2402 -1.1406c-0.0376,-0.1822 -0.0509,-0.3376 -0.0409,-0.4658 0.0106,-0.1292 0.038,-0.2351 0.0827,-0.3185 0.0446,-0.0835 0.1002,-0.1474 0.1654,-0.1931 0.0663,-0.045 0.1356,-0.0748 0.2091,-0.0894 0.0611,-0.0138 0.1199,-0.0185 0.1762,-0.0144 0.0562,0.0033 0.1094,0.0199 0.1582,0.0482 0.0482,0.0294 0.0915,0.075 0.1289,0.137 0.0375,0.0619 0.0675,0.1447 0.0892,0.2478l0.3298 1.5659 0.493 -0.1038 -0.2677 -1.271c-0.0308,-0.15 -0.0386,-0.2796 -0.0251,-0.391 0.0145,-0.1107 0.0446,-0.2037 0.0909,-0.2791 0.0464,-0.0754 0.1028,-0.1352 0.1686,-0.1785 0.0665,-0.0434 0.1359,-0.0732 0.2094,-0.0878 0.061,-0.0138 0.1197,-0.0185 0.1762,-0.0144 0.0562,0.0033 0.1093,0.0199 0.1581,0.0482 0.0483,0.0294 0.0915,0.075 0.129,0.137 0.0375,0.0619 0.0675,0.1447 0.0892,0.2478zm1.5766 1.3033l0.5994 -0.1262 -0.1222 -0.58 -0.5993 0.1262 0.1221 0.58zm2.6551 -0.4784c0.1407,-0.0305 0.2649,-0.0801 0.3707,-0.1495 0.1056,-0.0694 0.1947,-0.1537 0.2662,-0.253 0.0717,-0.0992 0.1258,-0.2098 0.1635,-0.3305 0.0375,-0.1214 0.0577,-0.2493 0.0615,-0.3831 0.0044,-0.1347 -0.0084,-0.2716 -0.0376,-0.4101 -0.0367,-0.174 -0.0953,-0.3324 -0.176,-0.4761 -0.0797,-0.143 -0.1791,-0.2634 -0.2965,-0.3615 -0.1182,-0.098 -0.2527,-0.1655 -0.4029,-0.2037 -0.1503,-0.0382 -0.3136,-0.0391 -0.4904,-0.0036 -0.1286,0.028 -0.2396,0.0723 -0.3326,0.134 -0.092,0.0623 -0.1662,0.1376 -0.2213,0.2275 -0.0559,0.09 -0.0919,0.1909 -0.1086,0.303l-0.2932 -1.3919 -0.4688 0.0988 0.7125 3.383 0.4688 -0.0988 -0.0926 -0.4397c0.0608,0.0973 0.1348,0.1768 0.2227,0.239 0.0872,0.0625 0.186,0.1039 0.2955,0.1246 0.1105,0.0213 0.2301,0.018 0.3591,-0.0084zm-1.0443 -1.1478c-0.0302,-0.1477 -0.0375,-0.2782 -0.0222,-0.3933 0.0146,-0.1141 0.0477,-0.2127 0.0976,-0.2956 0.05,-0.082 0.1126,-0.1482 0.1871,-0.1984 0.0751,-0.0503 0.1571,-0.0844 0.2457,-0.103 0.0892,-0.0197 0.178,-0.0215 0.2664,-0.0056 0.088,0.015 0.172,0.0503 0.2509,0.1052 0.0799,0.0556 0.1492,0.1335 0.2102,0.2351 0.06,0.1009 0.1069,0.2281 0.1399,0.381 0.0314,0.1532 0.0416,0.289 0.0288,0.4078 -0.0129,0.1188 -0.0429,0.2202 -0.0914,0.3053 -0.0479,0.0841 -0.11,0.1527 -0.1849,0.2046 -0.075,0.0511 -0.1601,0.0867 -0.2535,0.1064 -0.0886,0.0187 -0.1776,0.0197 -0.2671,0.0016 -0.0887,-0.0175 -0.1734,-0.0561 -0.2531,-0.115 -0.0797,-0.0589 -0.1508,-0.1407 -0.2115,-0.2456 -0.0616,-0.1048 -0.1093,-0.2353 -0.1429,-0.3905zm2.734 0.7112l0.493 -0.1038 -0.231 -1.097c-0.0443,-0.2103 -0.0572,-0.3876 -0.0401,-0.5299 0.0177,-0.1435 0.0655,-0.2561 0.1425,-0.338 0.0769,-0.0818 0.1823,-0.1368 0.3162,-0.1641l0.3527 -0.0743 -0.0875 -0.4157 -0.3044 0.0641c-0.099,0.0209 -0.1869,0.0596 -0.2651,0.1156 -0.0772,0.0566 -0.141,0.1289 -0.1895,0.2182 -0.0495,0.0887 -0.0814,0.193 -0.0958,0.3121l-0.1069 -0.5075 -0.493 0.1038 0.5089 2.4165z"/>
  <path class="fil1 str0" d="M33.1029 34.4483l6.403 -8.9959c0.8955,-0.8281 1.791,-0.5164 2.6865,0 -1.6679,4.0733 -3.7347,8.1066 -6.8141,12.0387 -0.7697,-1.1707 -1.9483,-1.9423 -2.2754,-3.0428z"/>
  <path class="fil1" d="M36.3308 23.1771l2.4871 1.9579 -5.8737 8.2551c-1.2384,-0.6352 -2.5015,-1.023 -3.8101,-0.9525l-9.6838 2.6458c-1.7755,0.724 -3.2563,0.6078 -4.2203,-0.3968l-9.4851 -7.2232 -5.2508 -7.0909c0.8603,-1.0495 2.362,-1.12 3.6633,0.4234l4.1665 3.6877c-0.6861,0.2109 -2.0839,0.7127 -1.2013,2.4786 0.4226,0.8456 2.8851,2.1641 3.9283,2.1774 3.3258,0.0424 6.604,0.1587 9.9748,0.1587 0.1448,0 0.1448,-0.2202 0,-0.2202 -3.3084,0 -6.6409,-0.119 -9.9653,-0.119 -2.9039,-0.507 -6.0095,-3.4936 -2.4189,-4.4451 1.7891,-0.474 4.7717,-0.1473 9.1152,-0.2122 1.3655,-0.0839 2.6563,-0.3925 3.8101,-1.1113 5.5636,-2.778 10.6116,-3.0211 14.764,-0.0134z"/>
  <path class="fil1" d="M3.4905 19.969c-0.6733,-0.6077 -2.1347,-0.7273 -2.6904,-0.0772 -0.6557,-1.7511 0.4618,-2.274 2.7695,-1.3438l6.0485 5.6564 -1.1854 0.228 -4.9422 -4.4634z"/>
  <path class="fil1" d="M9.8449 24.2524c-2.04,-1.9078 -4.164,-3.8674 -6.204,-5.7752 0.4713,-0.4595 1.0613,-0.4678 2.3094,0.6262l5.0802 5.0879 -1.1856 0.0611z"/>
  <path class="fil1" d="M11.2038 24.1862l-5.1212 -5.1357c0.0658,-0.2457 0.1503,-0.2527 0.6745,0.0661l5.6699 5.034 -1.2232 0.0356z"/>
 </g>
</svg>
